<svg xmlns="http://www.w3.org/2000/svg" width="52.66" height="52.673" viewBox="0 0 52.66 52.673">
  <g id="picsvg_download_9_" data-name="picsvg_download (9)" transform="translate(-0.521 511.599)">
    <path id="Path_59" data-name="Path 59" d="M23.524-511.346c-20.288,3.017-29.8,25.793-17.565,42.055A26.307,26.307,0,0,0,37.409-461.1a26.39,26.39,0,0,0,13.539-34.772C46.3-506.411,34.622-513,23.524-511.346ZM42-496.229c-.023.023-.44.381-.927.8s-2.224,1.913-3.873,3.328-3.392,2.917-3.879,3.339-1.144.98-1.461,1.238-1.262,1.068-2.107,1.8c-2.418,2.107-2.735,2.365-2.893,2.365-.053,0-1.215-.962-2.588-2.142s-3.046-2.612-3.727-3.193-1.855-1.579-2.6-2.23-1.62-1.4-1.937-1.667-1.414-1.209-2.436-2.083l-1.855-1.6H26.881C35.226-496.27,42.028-496.252,42-496.229ZM11.27-495c2.576,2.236,8.351,7.2,9.578,8.228a10.155,10.155,0,0,1,1.438,1.35,21.938,21.938,0,0,1-2.013,1.831c-1.1.933-2.858,2.441-3.9,3.345s-2.16,1.86-2.482,2.13-1.227,1.045-2.019,1.731-1.467,1.244-1.5,1.244-.053-4.625-.053-10.27.041-10.27.088-10.264A6.2,6.2,0,0,1,11.27-495Zm32.149,9.6v10.276l-.446-.352c-.246-.194-1.35-1.139-2.459-2.1s-3-2.582-4.208-3.615c-4.032-3.439-4.8-4.12-4.8-4.243,0-.07,1.931-1.784,4.284-3.8,4.537-3.891,6.7-5.757,7.172-6.174a1.326,1.326,0,0,1,.37-.264C43.378-495.677,43.419-491.058,43.419-485.4ZM25-483.188c2,1.708,1.778,1.708,3.756.006.863-.745,1.6-1.35,1.643-1.35.07,0,2.348,1.937,8.909,7.582,1.637,1.414,3,2.635,3.028,2.717.041.117-3.1.147-15.452.147-9.818,0-15.505-.041-15.505-.112s1.256-1.191,2.788-2.506,4.214-3.615,5.951-5.112,3.2-2.717,3.234-2.717S24.128-483.928,25-483.188Z" transform="translate(0)" fill="#00112c"/>
  </g>
</svg>
