<svg xmlns="http://www.w3.org/2000/svg" width="52.902" height="52.889" viewBox="0 0 52.902 52.889">
  <g id="picsvg_download_6_" data-name="picsvg_download (6)" transform="translate(-4.787 6136.906)">
    <path id="Path_54" data-name="Path 54" d="M29.087-6136.847a27.415,27.415,0,0,0-4.17.688l-.336.079c-.087.02-.281.071-.435.119s-.34.1-.415.114-.182.052-.237.071-.206.071-.336.111a3.288,3.288,0,0,0-.368.123.651.651,0,0,1-.186.055.651.651,0,0,0-.186.055c-.123.052-.217.087-.632.245-.095.036-.221.087-.289.115s-.2.083-.3.118-.289.123-.427.186-.253.111-.265.111-.632.284-1.067.5c-.522.257-1.17.612-1.739.952-.431.257-1.376.874-1.724,1.123-.1.071-.289.205-.419.3a2.5,2.5,0,0,0-.293.221c-.032.028-.126.1-.213.166-.186.143-.206.154-.731.593a27.74,27.74,0,0,0-3.716,3.775c-.075.1-.146.186-.158.2s-.075.091-.142.178-.138.182-.166.213a3.287,3.287,0,0,0-.217.293c-.091.13-.225.32-.3.419a27.215,27.215,0,0,0-2.372,4.075c-.138.3-.2.435-.379.851-.032.063-.083.2-.123.3s-.091.229-.119.3-.079.193-.115.284-.091.241-.123.328c-.154.415-.257.7-.3.85-.02.063-.055.182-.079.257a5.343,5.343,0,0,0-.158.514c-.016.075-.051.189-.071.257-.055.162-.158.534-.182.652-.012.055-.04.178-.063.276-.123.471-.217.917-.332,1.522-.032.174-.083.47-.119.656a3.87,3.87,0,0,0-.063.454c0,.063-.028.3-.059.53a27.141,27.141,0,0,0,0,6.384,24.7,24.7,0,0,0,.569,3.1c.024.1.051.221.063.277.024.118.126.49.182.652.02.063.055.182.071.257a2.592,2.592,0,0,0,.075.265c.107.316.13.4.162.506.04.146.142.435.3.85.032.087.087.233.123.324s.087.221.115.289.083.2.119.3.123.288.186.427.111.253.111.265.285.632.5,1.067c.237.475.672,1.272.889,1.633a2.142,2.142,0,0,1,.15.269.826.826,0,0,0,.075.126c.04.059.245.364.455.68s.435.656.506.755.206.288.3.419a2.487,2.487,0,0,0,.221.292c.028.032.1.126.166.213.142.186.154.206.593.731a27.782,27.782,0,0,0,3.775,3.716c.1.075.186.146.2.158s.091.071.178.138.182.138.213.167a2.515,2.515,0,0,0,.293.221c.13.091.32.226.419.3a27.789,27.789,0,0,0,3.483,2.083c.577.285,1.38.648,1.739.791a2.18,2.18,0,0,1,.245.1c.063.031.237.1.506.193l.494.178c.217.079.451.158.514.178l.316.094c.111.032.253.075.316.1.2.063.5.15.771.217.142.036.34.091.439.123a1.437,1.437,0,0,0,.253.06,1.458,1.458,0,0,1,.273.055c.111.032.336.083.5.115s.431.091.593.122a2.862,2.862,0,0,0,.391.063,4.127,4.127,0,0,1,.415.06c.423.075,1.115.158,1.961.237a37.274,37.274,0,0,0,3.854.02c.2-.024.5-.052.672-.063a25.47,25.47,0,0,0,3.854-.648l.277-.063c.119-.024.49-.126.652-.182.067-.02.182-.055.257-.071a8.319,8.319,0,0,0,.941-.3.64.64,0,0,1,.186-.056.625.625,0,0,0,.186-.056c.123-.051.217-.087.636-.245.091-.035.221-.087.285-.114l.3-.118c.1-.04.233-.091.3-.123.407-.178.549-.241.85-.379.186-.087.364-.17.4-.194a.838.838,0,0,1,.119-.059.893.893,0,0,0,.119-.059.906.906,0,0,1,.111-.056,8.3,8.3,0,0,0,.9-.47c.715-.4,1.822-1.091,2.435-1.534.1-.071.289-.206.419-.3a2.515,2.515,0,0,0,.293-.221c.032-.028.126-.1.213-.167s.166-.126.178-.138.1-.083.2-.158a27.782,27.782,0,0,0,3.775-3.716c.439-.526.451-.546.593-.731.063-.087.138-.182.166-.213a2.916,2.916,0,0,0,.21-.277c.087-.122.213-.3.281-.4a29.132,29.132,0,0,0,1.561-2.471c.368-.672.411-.755.435-.81a.831.831,0,0,1,.059-.119.825.825,0,0,0,.059-.118A.835.835,0,0,1,55-6098.8a.825.825,0,0,0,.059-.118c.016-.032.083-.186.154-.336.115-.245.206-.443.391-.87.032-.067.083-.2.123-.3s.087-.214.107-.253a1.035,1.035,0,0,0,.071-.178c.02-.055.071-.2.119-.32.1-.273.308-.85.356-1.008.02-.067.063-.209.095-.324a2.027,2.027,0,0,1,.1-.284.4.4,0,0,0,.043-.158.658.658,0,0,1,.055-.209,4.058,4.058,0,0,0,.182-.645c.02-.087.055-.237.079-.336a25.73,25.73,0,0,0,.648-3.854c.012-.174.04-.479.063-.672a37.111,37.111,0,0,0-.02-3.854,26.629,26.629,0,0,0-.692-4.27c-.024-.1-.051-.221-.063-.276-.024-.119-.126-.49-.182-.652-.02-.067-.055-.182-.071-.257a2.4,2.4,0,0,0-.079-.277c-.087-.253-.126-.375-.158-.494-.043-.146-.241-.711-.356-1.008-.047-.118-.1-.265-.119-.32a1.079,1.079,0,0,0-.071-.178c-.02-.039-.071-.154-.107-.253s-.091-.233-.123-.3a26.722,26.722,0,0,0-1.218-2.491c-.4-.715-1.091-1.822-1.534-2.435-.071-.1-.206-.289-.3-.419a2.508,2.508,0,0,0-.221-.293c-.028-.031-.1-.126-.166-.213-.142-.186-.154-.206-.593-.731A28.134,28.134,0,0,0,47.8-6131.1c-.1-.075-.186-.146-.2-.158-.028-.032-.672-.526-.791-.6-.055-.036-.186-.13-.3-.206-.3-.222-1.269-.857-1.593-1.052-.482-.292-.644-.379-1.372-.771-.419-.226-1.166-.585-1.66-.8-.107-.047-.249-.11-.316-.142-.281-.123-.83-.34-1.048-.415-.055-.02-.2-.071-.316-.119s-.269-.1-.336-.119-.182-.055-.257-.083-.2-.067-.277-.1c-.253-.087-1.324-.4-1.5-.431-.055-.012-.178-.04-.277-.063-.47-.123-.917-.217-1.522-.332-.174-.032-.47-.083-.656-.119a3.877,3.877,0,0,0-.455-.063c-.063,0-.3-.027-.53-.059a21.213,21.213,0,0,0-3.261-.174C30.249-6136.9,29.451-6136.878,29.087-6136.847Zm8.459,10.768c.261.024.7.056.968.08a9.263,9.263,0,0,1,5.2,1.94,11.91,11.91,0,0,1,1.158,1.162,8.635,8.635,0,0,1,1.119,1.858c.043.107.1.25.13.316a4.948,4.948,0,0,1,.178.514c.02.063.051.17.075.237a10.79,10.79,0,0,1,.336,1.581,62.537,62.537,0,0,1,.217,7.866c0,6.843-.063,7.871-.569,9.646a9.166,9.166,0,0,1-.87,1.988,8.454,8.454,0,0,1-2.708,2.7,8.132,8.132,0,0,1-1.1.55.557.557,0,0,0-.15.055,8.07,8.07,0,0,1-1.593.475c-1.431.292-2.822.348-8.7.348s-7.25-.055-8.7-.348a10.276,10.276,0,0,1-1.621-.482l-.257-.106a9.393,9.393,0,0,1-1-.514,1.913,1.913,0,0,0-.229-.138,9.341,9.341,0,0,1-1.257-1.048,8.818,8.818,0,0,1-1.048-1.261,1.309,1.309,0,0,0-.115-.19,9.364,9.364,0,0,1-.775-1.652,11.713,11.713,0,0,1-.553-2.728c-.016-.206-.043-.553-.063-.771-.059-.62-.091-9.345-.04-11.325a23.907,23.907,0,0,1,.186-3.1,9.919,9.919,0,0,1,.589-2.293c.028-.067.091-.213.134-.328a8.74,8.74,0,0,1,1.166-1.905,13.6,13.6,0,0,1,1.225-1.206,8.563,8.563,0,0,1,2.1-1.178c.087-.032.229-.083.316-.119a10.229,10.229,0,0,1,1.664-.423,4.382,4.382,0,0,0,.447-.06,24.139,24.139,0,0,1,2.87-.182C28.1-6126.161,36.974-6126.13,37.547-6126.079Z" transform="translate(0 0)" fill="#00112c"/>
    <path id="Path_55" data-name="Path 55" d="M357.587-5793.84c-1.407.028-3.036.091-3.36.13a11.453,11.453,0,0,0-1.285.217c-.1.028-.221.06-.277.071a6.161,6.161,0,0,0-1.621.731,6.3,6.3,0,0,0-1.431,1.431,5.873,5.873,0,0,0-.625,1.285c-.02.063-.051.17-.075.237-.4,1.15-.486,3.162-.455,9.783.02,3.617.059,5.443.13,6.048a12.216,12.216,0,0,0,.221,1.3c.028.1.059.221.071.277a6.163,6.163,0,0,0,.731,1.62,6.3,6.3,0,0,0,1.431,1.432,5.881,5.881,0,0,0,1.285.624c.067.02.174.052.237.075a8.881,8.881,0,0,0,1.9.336c1.8.174,11.816.174,13.7,0a8.86,8.86,0,0,0,1.917-.336c.067-.023.174-.055.237-.075a6.9,6.9,0,0,0,1.4-.7,7.007,7.007,0,0,0,1.312-1.36,5.8,5.8,0,0,0,.625-1.284c.02-.067.051-.174.075-.237a15.983,15.983,0,0,0,.439-4.565c.032-1.957.02-7.294-.02-9.31a13.385,13.385,0,0,0-.419-3.637c-.024-.067-.055-.174-.075-.237a5.873,5.873,0,0,0-.625-1.285,6.232,6.232,0,0,0-1.431-1.431,5.977,5.977,0,0,0-1.285-.625c-.063-.02-.17-.051-.237-.075a9.1,9.1,0,0,0-1.917-.34C366.98-5793.832,360.678-5793.9,357.587-5793.84Zm12.452,2.637a1.78,1.78,0,0,1,.988.521,1.861,1.861,0,0,1,0,2.645,1.878,1.878,0,0,1-.743.471,2.5,2.5,0,0,1-1.194-.012,1.7,1.7,0,0,1-.716-.455,1.69,1.69,0,0,1-.455-.715,2.494,2.494,0,0,1-.012-1.194,1.885,1.885,0,0,1,.47-.743,1.881,1.881,0,0,1,.949-.518A1.438,1.438,0,0,1,370.039-5791.2Zm-7.776,2.218a7.55,7.55,0,0,1,1.581.359.66.66,0,0,0,.182.056,4.1,4.1,0,0,1,.7.28c.1.044.206.095.237.115s.15.083.257.138a7.331,7.331,0,0,1,1.249.85c.032.032.182.167.332.292a8.305,8.305,0,0,1,1.621,2.1c.036.063.075.146.095.178a2.5,2.5,0,0,1,.119.237,4.116,4.116,0,0,1,.281.7.66.66,0,0,0,.055.182,8.276,8.276,0,0,1,.419,2.522,8.264,8.264,0,0,1-.419,2.521.626.626,0,0,0-.055.182,7.063,7.063,0,0,1-.459,1.04,8.184,8.184,0,0,1-3.388,3.388,7.018,7.018,0,0,1-1.04.459.619.619,0,0,0-.182.055,8.277,8.277,0,0,1-2.522.419,8.277,8.277,0,0,1-2.522-.419.656.656,0,0,0-.2-.055.314.314,0,0,1-.15-.06.268.268,0,0,0-.13-.059,8.248,8.248,0,0,1-1.455-.767,8.134,8.134,0,0,1-2.676-2.961,7.059,7.059,0,0,1-.459-1.04.625.625,0,0,0-.055-.182,8.264,8.264,0,0,1-.419-2.521,8.276,8.276,0,0,1,.419-2.522.623.623,0,0,0,.055-.182,7.036,7.036,0,0,1,.459-1.04,8.185,8.185,0,0,1,3.388-3.388,7.088,7.088,0,0,1,1.04-.458.623.623,0,0,0,.182-.056A8.107,8.107,0,0,1,362.264-5788.985Z" transform="translate(-330.081 -329.483)" fill="#00112c"/>
    <path id="Path_56" data-name="Path 56" d="M546.289-5599.861a5.281,5.281,0,0,0-3.309,2.1,5.05,5.05,0,0,0-.98,3.052,4.7,4.7,0,0,0,.542,2.32,5.19,5.19,0,0,0,2.356,2.356,4.7,4.7,0,0,0,2.32.542,4.7,4.7,0,0,0,2.32-.542,5.19,5.19,0,0,0,2.356-2.356,4.7,4.7,0,0,0,.542-2.32,4.7,4.7,0,0,0-.542-2.32,5.191,5.191,0,0,0-2.356-2.356,5.014,5.014,0,0,0-1.423-.478A6.728,6.728,0,0,0,546.289-5599.861Z" transform="translate(-515.976 -515.753)" fill="#00112c"/>
  </g>
</svg>
