<svg xmlns="http://www.w3.org/2000/svg" width="124.396" height="125.261" viewBox="0 0 124.396 125.261">
  <g id="picsvg_download_11_" data-name="picsvg_download (11)" transform="translate(0.001 0.003)">
    <path id="Path_60" data-name="Path 60" d="M5.99.059C3.664.089,1.922.149,1.8.21A4.36,4.36,0,0,0,.593,1.317l-.322.4L.15,4.287C.019,7.006.059,18.494.2,19.007a4.687,4.687,0,0,0,1.631,1.6c.352.171.8.181,6.222.191,3.212,0,6.011.03,6.222.06.272.05.383.121.423.282.02.111.091,1.43.151,2.92.091,2.457.091,2.729-.06,2.89s-.524.181-5.568.222c-5.971.04-5.94.04-6.977.7A6.127,6.127,0,0,0,.472,29.75C-.021,30.7,0,28.593,0,76.73v45.207l.3.6a7.193,7.193,0,0,0,2.265,2.346l.554.322h7.31c5.658,0,7.37-.03,7.561-.121a6.382,6.382,0,0,0,1.551-1.259,3.72,3.72,0,0,0,.836-2.245c.06-.564.121-11.518.171-26.732.04-14.176.091-26.7.131-27.839l.06-2.064L21.9,64.9c.634-.03,4.722-.03,9.092-.01,6.212.03,7.964.07,8.105.171.161.121.171,1.641.232,28.252.04,17.68.091,28.292.151,28.574a4.674,4.674,0,0,0,2.708,3.2c.3.081,10.511.121,39.569.151,35.642.04,39.207.02,39.609-.121a5.083,5.083,0,0,0,1.1-.715,4.968,4.968,0,0,0,1.742-2.557c.191-.574.191-1.54.191-45.56s-.01-44.976-.191-45.58a4.305,4.305,0,0,0-1.822-2.487c-1.329-1.007-1.208-.987-7.571-1.067a53.878,53.878,0,0,1-5.417-.171,18.16,18.16,0,0,1-.081-3.021l.03-2.91.755-.06c.413-.04,3.071-.1,5.89-.141,4.561-.07,5.2-.091,5.658-.252a2.574,2.574,0,0,0,1.49-1.138l.352-.524V10.429q0-8.5-.211-8.86a4.366,4.366,0,0,0-1.4-1.279c-.332-.171-1.571-.181-21.546-.242C75.341-.022,11.7-.022,5.99.059Zm95.439,6.313,16.019.06.07.262c.04.141.07,1.9.07,3.907.01,2.829-.02,3.675-.121,3.776a2.471,2.471,0,0,1-.906.2c-.977.081-107.773.081-109.031,0a2.79,2.79,0,0,1-1.057-.2c-.1-.1-.131-.926-.131-3.826,0-3.373.02-3.725.181-3.977L6.694,6.3H46.052c21.637,0,46.556.03,55.376.07Zm.081,14.519a7.171,7.171,0,0,1,2.064.191,12.883,12.883,0,0,1,.091,3.01c-.01,1.591-.05,2.93-.081,2.98s-16.673.081-41.25.05l-41.19-.04-.06-.906a31.938,31.938,0,0,1,.03-5.135c.06-.04,1.389-.1,2.94-.141,3.816-.091,75.02-.1,77.457-.01Zm13.019,12.495c2.849.091,3.5.131,3.625.262s.151,4.984.151,42.69c0,35.542-.02,42.549-.131,42.62-.242.151-28.373.221-50.584.131-19.352-.081-21.536-.1-21.758-.252s-.242-.221-.3-1.54c-.04-.755-.07-13.723-.07-28.816V61.053L45.2,60.53A2.23,2.23,0,0,0,44.22,59.4c-.312-.2-.584-.262-1.661-.342-.715-.06-6.645-.111-13.512-.131-10.381-.02-12.3,0-12.686.121a2.649,2.649,0,0,0-1.581,1.43l-.312.644L14.4,89.94c-.04,15.838-.111,28.856-.151,28.927a23.642,23.642,0,0,1-3.937.111c-3.292-.01-3.886-.03-3.977-.161a10.4,10.4,0,0,1-.171-2.034c-.1-2.718-.07-68.908.02-76.631.091-7.2.04-6.716.785-6.877.594-.131,103.4-.02,107.561.111Z" transform="translate(0)" fill="#000e2c"/>
    <path id="Path_61" data-name="Path 61" d="M154.861,446.877a3.809,3.809,0,0,0-.876.352,5.019,5.019,0,0,0-1.087,1.359,1.3,1.3,0,0,1-.151.383,3.009,3.009,0,0,0,.03,1.9,3.555,3.555,0,0,0,1.228,1.54c.866.574.836.574,13.341.544l11.377-.03.473-.262a4.079,4.079,0,0,0,1.551-1.571,2.259,2.259,0,0,0,.282-1.379,2.4,2.4,0,0,0-.614-1.873,2.1,2.1,0,0,0-1.843-.9c-1.883-.111-11.075-.252-16.915-.242C156.17,446.705,155.4,446.726,154.861,446.877Z" transform="translate(-137.243 -401.731)" fill="#000e2c"/>
    <path id="Path_62" data-name="Path 62" d="M518.262,447.052a3.014,3.014,0,0,0-1.5,1.42l-.262.5v62.757l.312.6a2.6,2.6,0,0,0,1.248,1.369c.393.181,1.339.191,27.618.191,29.682,0,27.467.04,28.262-.564a3.583,3.583,0,0,0,.7-.866l.352-.594V448.431l-.624-.644a2.1,2.1,0,0,0-1.138-.765c-.373-.091-7.34-.121-27.487-.141C518.826,446.85,518.765,446.85,518.262,447.052Zm50.121,5.92a.715.715,0,0,1,.332.282c.05.1.111,12.394.141,27.316.05,24.315.04,27.155-.1,27.306-.141.171-1.41.171-22.956.081-12.545-.06-22.906-.121-23.016-.151a.393.393,0,0,1-.262-.222c-.02-.1-.01-12.374.02-27.285.05-22.141.091-27.124.191-27.255.121-.151,2.265-.161,22.775-.161,13.592,0,22.724.04,22.875.091Z" transform="translate(-464.498 -401.876)" fill="#000e2c"/>
    <path id="Path_63" data-name="Path 63" d="M786.84,635.13a10.145,10.145,0,0,0-1.792,2.437c-.594,1.007-1.389,2.3-1.822,2.97a9.042,9.042,0,0,0-.544.876c0,.03-.886,1.571-1.309,2.275-.05.081-.645,1.077-1.339,2.215s-1.279,2.134-1.309,2.215-.151.272-.252.423-.413.665-.715,1.158-.594.957-.665,1.037a7.087,7.087,0,0,0-.453.755c-.181.332-.453.785-.594,1.007s-.362.6-.5.856a7.879,7.879,0,0,1-.453.755,8.992,8.992,0,0,0-.654,1.077c-.131.242-.362.624-.524.866a4.3,4.3,0,0,0-.292.473c0,.03-.785,1.41-1.007,1.762a4.566,4.566,0,0,0-.654,1.621,3.611,3.611,0,0,0,.836.715c2.024,1.369,1.893,1.319,2.527,1,.614-.322.967-.765,2.547-3.232.3-.473.574-.926.614-1.007a4.807,4.807,0,0,1,.272-.453,5.1,5.1,0,0,0,.292-.5c.081-.181,1.017-1.792,1.319-2.265.05-.081.4-.654.765-1.258s.735-1.178.8-1.259a9.015,9.015,0,0,0,.514-.856c.211-.393.544-.956.735-1.258.433-.665.493-.775.805-1.329.121-.242.423-.725.654-1.087a10.941,10.941,0,0,0,.735-1.208c.06-.141,1.5-2.537,1.863-3.1.1-.151.211-.342.252-.423a4.288,4.288,0,0,1,.332-.554,17.256,17.256,0,0,0,2.457-4.853c.01-.383-.04-.473-.483-.926a4.148,4.148,0,0,0-2.074-1.168A.882.882,0,0,0,786.84,635.13Z" transform="translate(-694.232 -570.935)" fill="#000e2c"/>
    <path id="Path_64" data-name="Path 64" d="M809.4,831.79a1.73,1.73,0,0,0-.473.292,22.173,22.173,0,0,0-1.752,2.678,9.031,9.031,0,0,1-.463.816,6.587,6.587,0,0,0-.594,1.017c-.131.252-.363.644-.514.876a3.219,3.219,0,0,0-.272.483,3.22,3.22,0,0,1-.272.483c-.383.584-.513.806-.6.977-.04.081-.262.433-.5.775a5.066,5.066,0,0,0-.433.685,2.683,2.683,0,0,1-.282.493c-.151.221-.312.483-.352.564s-.161.282-.272.453a3.6,3.6,0,0,0-.292.524c-.06.121-.322.574-.6,1.017a14.392,14.392,0,0,0-1.218,2.326c0,.171.513.7.987,1.027a11.077,11.077,0,0,0,2.316,1.2c.292,0,.926-.765,1.53-1.863.181-.332.443-.805.584-1.057s.423-.745.644-1.108.443-.745.513-.856.242-.362.4-.564a1.861,1.861,0,0,0,.272-.433,8.207,8.207,0,0,1,.433-.735,9.639,9.639,0,0,0,.5-.836c.04-.081.171-.312.282-.5.534-.9,3.031-5.1,3.121-5.266a6.424,6.424,0,0,0,.695-1.551c0-.232-.886-1.108-1.5-1.49a5.031,5.031,0,0,0-1.551-.544C809.723,831.67,809.572,831.73,809.4,831.79Z" transform="translate(-719.903 -747.932)" fill="#000e2c"/>
    <path id="Path_65" data-name="Path 65" d="M311.9,876.791l-.352.171-.03,6.776-.02,6.766.262.232a4.857,4.857,0,0,0,2.769.332c.866-.191.826.141.836-7.32l.01-6.393-.282-.373-.282-.373h-1.279A3.675,3.675,0,0,0,311.9,876.791Z" transform="translate(-280.138 -788.352)" fill="#000e2c"/>
  </g>
</svg>
