<svg xmlns="http://www.w3.org/2000/svg" width="52.73" height="52.889" viewBox="0 0 52.73 52.889">
  <g id="picsvg_download_8_" data-name="picsvg_download (8)" transform="translate(-0.55 512.348)">
    <path id="Path_58" data-name="Path 58" d="M24.85-512.237C10.66-510.746.55-499.785.55-485.888a26.381,26.381,0,0,0,39.025,23.167,26.429,26.429,0,0,0,5.988-41.825C40.174-509.936,31.966-512.983,24.85-512.237Zm-4.714,11.548c.933.217,1.368,1,1.368,2.478a17.841,17.841,0,0,0,1.362,6.17c.975,2.284.81,2.707-1.509,3.8a11.532,11.532,0,0,0-1.262.646c0,.528,2.988,4.233,4.544,5.624a20.83,20.83,0,0,0,3.981,2.859c.023-.029.317-.6.64-1.274,1.115-2.278,1.485-2.425,3.763-1.474a18.183,18.183,0,0,0,6.206,1.368c2.448,0,2.63.376,2.572,5.307-.059,4.415-.241,4.544-5.384,3.9a28.128,28.128,0,0,1-24.294-26.155c-.135-2.3.123-3,1.174-3.247A60.42,60.42,0,0,1,20.136-500.689Z" transform="translate(0 0)" fill="#00112c"/>
  </g>
</svg>
