<svg xmlns="http://www.w3.org/2000/svg" xmlns:xlink="http://www.w3.org/1999/xlink" width="376.409" height="25.818" viewBox="0 0 376.409 25.818">
  <defs>
    <clipPath id="clip-path">
      <rect id="Rectangle_52" data-name="Rectangle 52" width="376.409" height="25.818" fill="#fff"/>
    </clipPath>
  </defs>
  <g id="techno_touch" data-name="techno touch" clip-path="url(#clip-path)">
    <path id="Path_88" data-name="Path 88" d="M68.892,25.047H86.224V19.411H70.634a3.047,3.047,0,0,1-3.042-3.047V9.191A2.871,2.871,0,0,1,70.463,6.32H86.137V0H67.352c-1.793,0-3.512,1.4-4.78,2.663a6.76,6.76,0,0,0-1.98,4.78v9.8a7.273,7.273,0,0,0,3.949,6.469l1.032.53A7.27,7.27,0,0,0,68.892,25.047Z" fill="#000e2c"/>
    <path id="Path_89" data-name="Path 89" d="M323.713,25h17.331V19.229H325.453a3.047,3.047,0,0,1-3.045-3.046V9.01a2.872,2.872,0,0,1,2.871-2.872h15.675L341,0H322c-1.793,0-3.344,1.214-4.612,2.481a6.763,6.763,0,0,0-1.98,4.78v9.8a7.271,7.271,0,0,0,3.949,6.469l1.031.53A7.432,7.432,0,0,0,323.713,25Z" fill="#000e2c"/>
    <path id="Path_90" data-name="Path 90" d="M90.773,25.137h7.545v-9h16.727v9h7.273V0h-7.364V10.137H98.318V.091H90.773Z" fill="#000e2c"/>
    <path id="Path_91" data-name="Path 91" d="M190.938,0A7.582,7.582,0,0,1,196.3,2.218l.484.486A7.572,7.572,0,0,1,199,8.061v8.5a7.573,7.573,0,0,1-2.22,5.357l-.863.864A7.583,7.583,0,0,1,190.558,25H173.535a7.577,7.577,0,0,1-5.357-2.219l-.959-.959A7.579,7.579,0,0,1,165,16.466v-8a7.575,7.575,0,0,1,1.7-4.776l.177-.218a9.446,9.446,0,0,1,1.307-1.321l.493-.408A7.575,7.575,0,0,1,173.506,0ZM177.831,5.965a5.819,5.819,0,0,0-5.82,5.819v2a5.819,5.819,0,0,0,5.82,5.819h8.6a5.651,5.651,0,0,0,5.653-5.656V11.785a5.818,5.818,0,0,0-5.819-5.819Z" fill="#000e2c" fill-rule="evenodd"/>
    <path id="Path_92" data-name="Path 92" d="M268.938,0A7.582,7.582,0,0,1,274.3,2.218l.484.486A7.572,7.572,0,0,1,277,8.061v8.5a7.573,7.573,0,0,1-2.22,5.357l-.863.864A7.583,7.583,0,0,1,268.558,25H251.535a7.577,7.577,0,0,1-5.357-2.219l-.959-.959A7.579,7.579,0,0,1,243,16.466v-8a7.575,7.575,0,0,1,1.7-4.776l.177-.218a9.446,9.446,0,0,1,1.307-1.321l.493-.408A7.575,7.575,0,0,1,251.506,0ZM255.831,5.965a5.819,5.819,0,0,0-5.82,5.819v2a5.819,5.819,0,0,0,5.82,5.819h8.6a5.651,5.651,0,0,0,5.653-5.656V11.785a5.818,5.818,0,0,0-5.819-5.819Z" fill="#000e2c" fill-rule="evenodd"/>
    <path id="Path_93" data-name="Path 93" d="M127.045,25.137h8.545V10.279A3.414,3.414,0,0,1,139,6.865h10.535a3.414,3.414,0,0,1,3.414,3.414V25.137h8.364l-.091-18.273a6.947,6.947,0,0,0-2-4.368,7.365,7.365,0,0,0-4.36-2.341L152.953,0H135.589L134.2.135a8.486,8.486,0,0,0-4.207,2.018,8.021,8.021,0,0,0-2.611,3.711,6.424,6.424,0,0,0-.339,2.057Z" fill="#000e2c"/>
    <path id="Path_94" data-name="Path 94" d="M344.863,25h7.545V15.864h16.727V25h7.273V.046h-7.364V9.864H352.408V0h-7.545Z" fill="#000e2c"/>
    <path id="Path_95" data-name="Path 95" d="M288,25h14.724a7.507,7.507,0,0,0,4.862-2.218l.822-.751a7.272,7.272,0,0,0,2.367-5.369V0h-7.727V15.412a3.725,3.725,0,0,1-3.726,3.725h-8.73a3.725,3.725,0,0,1-3.726-3.725V0h-7.274V16.124a7.262,7.262,0,0,0,2.131,5.143l1.422,1.423A7.246,7.246,0,0,0,288,25Z" fill="#000e2c"/>
    <path id="Path_96" data-name="Path 96" d="M221.682,9.591V25h7.182V9.591Z" fill="#000e2c"/>
    <path id="Path_97" data-name="Path 97" d="M239.863,6.228H211.045V0h28.818Z" fill="#000e2c"/>
    <path id="Path_98" data-name="Path 98" d="M31.864,9.683v9.145a5.563,5.563,0,0,0,.905,3.276A7.808,7.808,0,0,0,34.6,23.923a6,6,0,0,0,3.56,1.032H57.409V19.137h-18V15.592h18V9.683Z" fill="#000e2c"/>
    <path id="Path_99" data-name="Path 99" d="M11.045,25V10.046h7.182V25Z" fill="#000e2c"/>
    <path id="Path_100" data-name="Path 100" d="M.5,6.319H29.318V0L.5-.5Z" fill="#000e2c"/>
    <path id="Path_101" data-name="Path 101" d="M31.965,5.692a.532.532,0,0,0,.529.623H57.409V0H37.361a4.954,4.954,0,0,0-2.79.751A7.985,7.985,0,0,0,32.5,3,6.491,6.491,0,0,0,31.965,5.692Z" fill="#000e2c"/>
  </g>
</svg>
