<svg xmlns="http://www.w3.org/2000/svg" width="52.914" height="53.889" viewBox="0 0 52.914 53.889">
  <g id="picsvg_download_7_" data-name="picsvg_download (7)" transform="translate(-0.222 224.802)">
    <path id="Path_57" data-name="Path 57" d="M23.129-224.574C9.212-222.81-1.149-209.395.37-195.115c2.449,22.967,29.894,32.458,45.483,15.719C62.913-197.7,47.819-227.718,23.129-224.574Zm16.319,16.331c.495.5.33,1.536-1.966,12.551-2.849,13.679-2.378,13.091-7.429,9.215-1.731-1.332-3.285-2.484-3.45-2.544a7.52,7.52,0,0,0-2.272,1.7,12.979,12.979,0,0,1-2.261,1.824c-.271,0-.165-4.6.153-6.3.094-.492,1.7-2.112,6.24-6.288,8.489-7.812,8.383-7.86-2.1-1.116l-7.806,5.028-3.32-1.056c-3.885-1.248-4.239-1.416-4.239-2.04,0-.648.212-.744,14.364-6.336C37.422-208.363,38.859-208.843,39.448-208.243Z" transform="translate(0 0)" fill="#00112c"/>
  </g>
</svg>
