<svg xmlns="http://www.w3.org/2000/svg" width="1249.622" height="1019.791" viewBox="0 0 1249.622 1019.791">
  <g id="tick" transform="translate(-44.378 2013.032)">
    <path id="Path_1" data-name="Path 1" d="M517.6-2012.3c-.4.4-5.1,1.1-10.4,1.5-14.4,1.1-32.6,3.2-33.7,3.9-.5.4-4.6,1-9,1.4s-8.6,1.2-9.2,1.7c-.7.6-4.3,1.3-8,1.5-3.8.3-7.3,1-7.9,1.4-.6.5-3.5,1.3-6.5,1.9a39.927,39.927,0,0,0-7.4,1.9,74.144,74.144,0,0,1-10.2,3,92.514,92.514,0,0,0-10.2,3,11.053,11.053,0,0,1-4.5,1.1c-1.4,0-2.7.4-3,.9s-2.1,1.2-4,1.5a27.4,27.4,0,0,0-6.3,2.1,13.065,13.065,0,0,1-4.5,1.5,15.98,15.98,0,0,0-5,1.4c-1.8.8-4.9,2.1-7,3a18.419,18.419,0,0,1-5.1,1.6,3.778,3.778,0,0,0-2.6,1.4c-.6.7-3.7,2.1-6.9,3.1a34.563,34.563,0,0,0-7.3,3.1,5.4,5.4,0,0,1-3.1,1.4c-1.4,0-4.1,1.1-9.8,4.1-.8.5-6.2,3.2-12,6.1s-11.8,6.2-13.5,7.4a68.413,68.413,0,0,1-8,4.4c-2.7,1.3-8.7,4.6-13.3,7.4-4.5,2.8-9,5.6-10,6.1-3.6,2.2-12.9,8.6-18.7,13a85.8,85.8,0,0,1-8,5.4,18.116,18.116,0,0,0-4.4,3.5c-1.4,1.4-2.8,2.6-3.2,2.6-.7,0-2.7,1.5-9.9,7.7-2,1.8-4.2,3.3-4.7,3.3-.6,0-3.1,2.2-5.6,4.9a51.8,51.8,0,0,1-6.1,5.8c-3.3,1.9-12.8,10.5-21.7,19.7-17.3,17.6-35.9,37.8-38.9,42.2-.8,1.2-5.7,7.6-10.7,14.2-5.1,6.7-9.3,12.4-9.3,12.8a20.98,20.98,0,0,1-2.7,4.3c-1.6,2-3.2,4.3-3.8,5.2-.5.9-3,4.5-5.4,8s-7.5,11.6-11.3,17.9-7.3,12.2-7.9,13a20.982,20.982,0,0,0-1.5,3,20.19,20.19,0,0,1-1.4,3c-2.3,4-14,28.1-14,28.9a3.349,3.349,0,0,1-1.4,2,7.052,7.052,0,0,0-1.9,3.4,102.2,102.2,0,0,1-6.3,16.2c-1.3,2.9-2.4,5.9-2.4,6.7a4.347,4.347,0,0,1-1.5,2.8,5.1,5.1,0,0,0-1.5,3.4,8.565,8.565,0,0,1-1.5,4.2,9.535,9.535,0,0,0-1.5,5,6.8,6.8,0,0,1-1.5,4.4,5.788,5.788,0,0,0-1.5,3.9,14.143,14.143,0,0,1-1.5,5.1,13.92,13.92,0,0,0-1.5,4.8,15.9,15.9,0,0,1-1.4,5.5,102.055,102.055,0,0,0-4.4,16.2,11.4,11.4,0,0,1-1.4,4.2c-.5.6-1.2,3.8-1.5,7s-1.1,6.5-1.8,7.3-1.6,4.9-2,9a42.456,42.456,0,0,1-1.3,8.5c-1,1.5-3.1,14.9-4.8,31-4.9,46.2-3.8,101.2,3,144.5.8,5.2,2,12.6,2.6,16.5a53.967,53.967,0,0,0,2.5,10.2,16.182,16.182,0,0,1,1.5,5.6,32.423,32.423,0,0,0,1.4,7.3c.8,2.7,2.2,8,3.2,11.9a48.494,48.494,0,0,0,2.4,8,18.445,18.445,0,0,1,1.5,5.3,26.481,26.481,0,0,0,2.1,7A11.965,11.965,0,0,1,69-1344a56.122,56.122,0,0,0,2.6,8.5c1.4,3.8,2.8,7.9,3.1,9a18.684,18.684,0,0,0,2,4,8.623,8.623,0,0,1,1.3,3.8,11.488,11.488,0,0,0,1.4,4.5,66.959,66.959,0,0,1,3.1,7.2c1,2.5,3.8,8.7,6.2,13.7,2.3,5.1,4.3,9.6,4.3,10,0,1,9.6,20.1,10.9,21.7a80.041,80.041,0,0,1,4.1,7.1c1.6,3.3,4.9,8.9,7.1,12.5,2.3,3.6,4.5,7.4,5,8.5,1.2,2.8,3.2,5.9,4.2,6.6a11.041,11.041,0,0,1,2,2.7c.7,1.1,3.4,5.3,6,9.2s5.1,7.8,5.4,8.8c.3.9,2.5,3.8,4.8,6.3s7,8.3,10.5,13c3.4,4.6,6.5,8.6,6.9,8.9.3.3,3.1,3.4,6.1,7s6.7,7.6,8.2,9c1.6,1.3,2.8,2.9,2.8,3.5,0,1.9,38.9,39.2,46.8,44.9a38.972,38.972,0,0,1,5,4.3c.9,1.1,6.2,5.4,11.8,9.5,5.5,4.2,11.5,9,13.3,10.7,1.7,1.7,3.6,3.1,4.2,3.1s6.4,3.7,13,8.3c6.6,4.5,13.2,8.8,14.7,9.6s5.2,3,8.2,4.9a122.39,122.39,0,0,0,13.3,7.3c4.2,2.1,7.7,4.3,7.7,4.9,0,.5.8,1,1.9,1a4.8,4.8,0,0,1,3.1,1.5,4.017,4.017,0,0,0,2.4,1.5c1.1,0,8,3.1,23.2,10.6,5,2.4,9.7,4.4,10.5,4.4a7.416,7.416,0,0,1,3.5,1.5,7.9,7.9,0,0,0,4,1.5,5.1,5.1,0,0,1,3.4,1.5,5.356,5.356,0,0,0,3.5,1.5c1.2,0,4.9,1.2,8.1,2.6a70.226,70.226,0,0,0,8.9,3.4,111.345,111.345,0,0,1,13,4.5,28.767,28.767,0,0,0,7.3,1.9c2.4.4,5.1,1,6,1.6,1.9,1,8.4,2.7,15.7,4.1a38.335,38.335,0,0,1,7,1.9c2.2,1,4.6,1.5,15.5,3.5,4.1.8,9.5,1.8,12,2.4a57.609,57.609,0,0,0,9.3,1.1,22.8,22.8,0,0,1,8,1.5c1.8.8,8.6,1.9,15.2,2.6,14.6,1.4,100.3,2.3,101.9,1.1.6-.5,7.4-1.3,15.1-1.6,9.9-.5,14.5-1.2,15.6-2.2.9-.8,3.6-1.4,6.5-1.4a48.86,48.86,0,0,0,10.4-1.4,101.88,101.88,0,0,1,11.5-2.1c3.3-.4,6.5-1.1,7-1.5,1-.8,1.8-1,14-3.3a66.711,66.711,0,0,0,9.8-2.5,16.05,16.05,0,0,1,5.5-1.2,8.684,8.684,0,0,0,4.6-1.5,10.141,10.141,0,0,1,5-1.5,15,15,0,0,0,5.6-1.5,11.986,11.986,0,0,1,5-1.5,8.291,8.291,0,0,0,4.4-1.5,8.571,8.571,0,0,1,4.3-1.5,13.736,13.736,0,0,0,5.5-2,13.881,13.881,0,0,1,4.5-2,31.109,31.109,0,0,0,6.7-2.5,33.247,33.247,0,0,1,6.5-2.5,13.968,13.968,0,0,0,3.8-1.4c1.5-.8,5.3-2.5,8.3-3.7,8.5-3.4,39.7-18.8,47.6-23.6a54.458,54.458,0,0,1,7.9-4.3c.4,0,5.8-3.3,11.9-7.3,6.1-3.9,11.9-7.7,12.8-8.2,5.4-3.2,21.8-14.9,21.8-15.6,0-.4,1-1.1,2.2-1.4a13.258,13.258,0,0,0,4.2-2.9,42.7,42.7,0,0,1,4.2-3.6c1.2-.8,5.4-4.2,9.4-7.5s8-6.5,8.9-7c5-3.3,51.1-49.8,51.1-51.7,0-.3,2.1-2.8,4.8-5.5,4-4.3,8.5-9.8,15.2-18.5.8-1.1,2.7-3.4,4.1-5.2a67.729,67.729,0,0,0,4.9-7.1,27.226,27.226,0,0,1,3.1-4.5c1-.7,9.4-12.2,10.2-14a47.613,47.613,0,0,1,2.7-4.5c1.1-1.7,3.1-5.1,4.5-7.8,1.4-2.6,2.9-4.7,3.3-4.7.5,0,3.2-4.7,6.1-10.4,2.8-5.8,5.5-10.6,5.9-10.8s2.2-3.5,4-7.3c1.9-3.9,3.8-7.7,4.2-8.5,2-3.4,8-16.1,8-17a37.571,37.571,0,0,1,2.4-5.7,42.929,42.929,0,0,0,3.1-7.5,9.013,9.013,0,0,1,2.1-3.9,3.778,3.778,0,0,0,1.4-2.6,14.966,14.966,0,0,1,1.4-4.6c3.8-9,12.1-33.6,13.6-40.4a32.987,32.987,0,0,1,1.9-6c1.1-2.1,2.9-8.7,4.1-15.5a34.551,34.551,0,0,1,1.8-6.5,40.464,40.464,0,0,0,1.7-8.8c.4-3.9,1.1-7.5,1.5-8a19.889,19.889,0,0,0,1.4-5c.3-2.2,1.2-8.3,2-13.5,3.2-20.8,3.5-23.8,3.6-31,0-4.6.6-8.6,1.5-10.4,2.1-4,2.2-74.6.1-79.7-.7-1.9-1.6-9.4-2-16.8s-1-13.9-1.4-14.5-1.3-5.4-2-10.6-1.7-11.8-2.2-14.5c-2.9-16.1-3.6-19.1-4.3-20.2a21.85,21.85,0,0,1-1.3-6,23.741,23.741,0,0,0-1.5-5.9c-.5-.6-1.2-3.3-1.5-6-.4-2.7-1-5.4-1.4-5.9-.5-.6-1.6-3.7-2.5-7-2.9-10.6-3.3-11.9-4.6-15.5-.7-1.9-1.8-4.9-2.6-6.7a19.176,19.176,0,0,1-1.3-4.1,13.211,13.211,0,0,0-1.4-3.9c-2.7-5.5-4.6-10.4-4.6-12,0-2-3.8-10-5.1-10.9a2.9,2.9,0,0,1-.9-2.3c0-1-1.2-4-2.6-6.6-2.5-4.8-2.5-4.9-.8-8.7.9-2.1,2.1-3.8,2.7-3.8.5,0,6-4.8,12.1-10.8,21.3-20.4,30.8-29.2,31.6-29.2.4,0,2.9-2.1,5.7-4.8,2.7-2.6,8-7.2,11.7-10.2s7.9-6.5,9.3-7.8c4.5-4.1,25.7-17.7,33.8-21.7a49.618,49.618,0,0,0,4.5-2.5c.8-.5,6-3,11.5-5.6s11.2-5.3,12.7-6a11.022,11.022,0,0,1,4.5-1.4,7.284,7.284,0,0,0,3.7-1.5,8.564,8.564,0,0,1,4.2-1.5,5.1,5.1,0,0,0,3.4-1.5c.7-.8,2.7-1.5,4.6-1.5,1.8,0,3.5-.4,3.9-.9.3-.6,2.7-1.3,5.3-1.7a22.807,22.807,0,0,0,6.7-1.9c1.1-.7,4.7-1.6,8-1.9,3.3-.4,6.4-1.1,6.9-1.6.6-.6,2.8-1,5.1-1s4.7-.6,5.3-1.3c1-.9,10.5-1.3,38.7-1.6,27.3-.2,37.5-.6,37.5-1.5,0-1-19.5-16.2-22.9-17.9a46.757,46.757,0,0,1-4.6-2.7,30.067,30.067,0,0,0-4.5-2.6,17.4,17.4,0,0,1-3-2c-1.8-1.5-31.1-16.4-32.3-16.4a15.745,15.745,0,0,1-4-1.4c-1.8-.8-6.3-2.5-10.2-3.7-3.8-1.2-7.4-2.6-7.9-3.1a8.622,8.622,0,0,0-3.8-.8,14.024,14.024,0,0,1-5.6-1.4,34.318,34.318,0,0,0-7.6-2c-2.7-.3-5.4-1-6-1.5s-4.7-1.2-9.1-1.6-8.4-1.1-9-1.5c-3.5-2.7-68.6-2.7-72,0-.5.4-4.6,1.1-9,1.5s-8.4,1.1-9,1.5c-.5.5-3.2,1.1-5.9,1.5a31.348,31.348,0,0,0-7.5,2.1,14.894,14.894,0,0,1-6.2,1.4c-2,0-4.2.7-4.9,1.5a5.788,5.788,0,0,1-3.9,1.5,8.633,8.633,0,0,0-4.5,1.5,8.243,8.243,0,0,1-4,1.5c-1.2,0-4,1.1-6.4,2.5a33.5,33.5,0,0,1-7.7,3.1c-1.9.3-3.5.9-3.5,1.3,0,.3-2.4,1.7-5.2,3.1-2.9,1.3-8.5,4.3-12.5,6.7a63.2,63.2,0,0,1-7.8,4.3c-.4,0-4.4,2.5-9,5.5-7.9,5.2-11.8,8.2-22.7,17.5-2.5,2.2-4.9,4-5.3,4s-6.6,5.4-13.9,12c-7.2,6.6-16.6,15-20.9,18.7-4.3,3.8-10.6,9.5-14,12.8a100.693,100.693,0,0,1-9.2,8.3c-3.3,2.4-11,9.4-23.9,21.4-4.5,4.3-8.7,7.8-9.2,7.8s-4,3.3-7.9,7.3c-3.8,3.9-7.8,7.7-8.8,8.2-1.7,1.1-5.7,4.5-21.7,19-16.9,15.3-25.4,23-33,30.2-4.3,4-8.1,7.3-8.6,7.3-.4,0-5.1,4.2-10.5,9.2-18.3,17.6-23.4,22.3-25.3,23.4a128.747,128.747,0,0,0-10,8.7c-4.5,4.2-11.9,11-16.6,15.2s-12.5,11.4-17.5,16c-13.4,12.3-27,24.7-40.1,36.5-6.4,5.8-14.1,12.7-17.1,15.5-2.9,2.7-10.5,9.7-16.9,15.5-25,22.9-31.3,28.8-41.6,38.7-5.9,5.7-11.2,10.3-11.7,10.3s-6.2,5.4-12.7,12c-6.6,6.6-12.4,12-13,12-.5,0-5.2,4.3-10.3,9.5s-10,9.5-10.9,9.5-47-45.3-102.4-100.8C346-1638.6,327.1-1657,322.4-1659.5c-5.1-2.6-7-3-15.8-3.4-16.3-.5-15.6-1.1-62.8,45.9-21.9,21.7-39.8,39.8-39.8,40.2a23.186,23.186,0,0,1-3,5.1c-1.6,2.5-3,5.3-3,6.3a7.262,7.262,0,0,1-1.5,3.8c-1,1.3-1.5,4.3-1.5,8.6s.5,7.3,1.5,8.6a7.284,7.284,0,0,1,1.5,3.7c.1,5.5,12,17.8,142.9,148.6,74.6,74.4,139.6,139.1,144.4,143.7,9,8.4,12.9,10.8,22.6,13.8,9.3,2.8,21,1.4,30.3-3.6,2.2-1.3,5.1-2.9,6.4-3.6a25.443,25.443,0,0,0,5.5-5.5c1.8-2.3,10.4-11.6,19.2-20.7,8.7-9.1,23.2-24.2,32.2-33.5,29.6-30.9,68.5-71,105.5-108.5,20-20.3,36.7-37.5,37.1-38.2,1.2-2.1,188.1-188.5,191.5-191,1.7-1.3,9.4-8.7,17.2-16.6,7.8-7.8,15-14.2,15.9-14.2,1.3,0,2.5,1.9,4.1,6.3,1.3,3.4,3,7.4,3.8,8.9a13.93,13.93,0,0,1,1.4,5.1,13.735,13.735,0,0,0,1.5,5.3,13.763,13.763,0,0,1,1.5,4.5,13.064,13.064,0,0,0,1.5,4.5,13.893,13.893,0,0,1,1.5,4.7,10.026,10.026,0,0,0,1.1,3.9,46.284,46.284,0,0,1,2.5,7.7c.7,3.1,2,8.5,2.9,12.1a101.916,101.916,0,0,1,2.1,10,27.269,27.269,0,0,0,1.4,5.5,50.541,50.541,0,0,1,1.9,9.5c.6,4.1,1.4,9.7,2,12.5A91.739,91.739,0,0,1,999-1558c0,3.6.7,7.6,1.5,9,2.1,3.7,2.2,88.7.1,93.3-.8,1.8-1.7,8-2.1,14-.4,5.9-1.1,11-1.6,11.3s-.9,2.4-.9,4.7a55.667,55.667,0,0,1-1,8.2c-.5,2.2-1.2,5.3-1.5,7a37.814,37.814,0,0,1-1.5,5c-.4,1.1-1.2,4.2-1.8,7-2.5,12.3-4.2,18.9-5.2,19.9a5.1,5.1,0,0,0-1,3c0,2.1-3.6,14-5.1,16.8a8.485,8.485,0,0,0-.9,2.9,15.21,15.21,0,0,1-1.4,4.2c-.8,1.8-2.4,6-3.7,9.5-1.2,3.4-2.6,6.5-3,6.8-.5.3-.9,1.6-.9,2.8a5.4,5.4,0,0,1-1.5,3.6,4.347,4.347,0,0,0-1.5,2.8c0,1.9-15.7,33.9-17,34.7a2.857,2.857,0,0,0-1,2.4c0,1-1.2,3.6-2.7,5.8-4.2,5.9-5.2,7.6-6.3,10.2a53.014,53.014,0,0,1-4.6,7.2c-1.9,2.7-4.6,6.9-6,9.5a62.082,62.082,0,0,1-6.4,9.3c-2.2,2.6-4,5.3-4,5.9,0,.7-1.3,2.4-3,3.9-1.6,1.4-3,3-3,3.5,0,1.3-7.7,11.2-14.9,19-3.3,3.6-6.1,7-6.1,7.5,0,1.1-38.6,39.5-42.7,42.5-1.7,1.3-6.2,4.9-10,8.1a65.262,65.262,0,0,1-8.1,6.4c-1.3.5-3.6,2.4-8.9,7.1-1.4,1.2-3.2,2.2-3.9,2.2-.8,0-1.4.4-1.4.9s-2.6,2.6-5.7,4.7c-3.2,2.2-8,5.6-10.8,7.6a51.47,51.47,0,0,1-7.5,4.7c-1.4.6-4.7,2.5-7.5,4.2-2.7,1.6-6.3,3.7-8,4.5-4.3,2.2-7.1,3.8-8.6,5.1-2.1,1.6-25.1,13.3-26.3,13.3a38.767,38.767,0,0,0-7.1,2.9c-3.3,1.6-8,3.7-10.5,4.6a66.953,66.953,0,0,0-7.2,3.1,11.023,11.023,0,0,1-4.5,1.4,7.283,7.283,0,0,0-3.7,1.5,8.565,8.565,0,0,1-4.2,1.5,14.033,14.033,0,0,0-5.1,1.4c-5.8,2.9-10.4,4.6-12.4,4.6a15.028,15.028,0,0,0-5.2,1.4,102.059,102.059,0,0,1-16.2,4.4,11.917,11.917,0,0,0-4,1.2c-.5.4-3.9,1.1-7.5,1.5s-6.8,1.2-7.1,1.7-4.2,1.2-8.5,1.5-8.8,1.2-9.9,1.9-6.1,1.5-11.1,1.7c-5.1.3-10.2,1.1-11.5,1.9-3.5,1.9-100.8,1.9-103.2,0-.9-.8-5.4-1.5-10.9-1.9-5.1-.2-10.6-1.1-12.3-1.8a32.84,32.84,0,0,0-8.8-1.8c-3.2-.3-6.4-1-7-1.5-.7-.5-4-1.2-7.4-1.5-3.5-.4-7.1-1.1-8-1.6a82.64,82.64,0,0,0-9.8-2.6,78.145,78.145,0,0,1-10.5-2.8c-5.7-2.4-12.6-4.6-14.6-4.7a8.243,8.243,0,0,1-4-1.5,7.119,7.119,0,0,0-3.4-1.5,14.147,14.147,0,0,1-4.4-1.5,13.063,13.063,0,0,0-4.5-1.5,7.453,7.453,0,0,1-3.6-1.4,16.607,16.607,0,0,0-5.2-2,77,77,0,0,1-11.2-4.7c-4.4-2.1-8.4-3.9-8.9-3.9a4.29,4.29,0,0,1-2.2-1.5,4.57,4.57,0,0,0-2.9-1.5c-2.1,0-19.6-8.7-24.5-12.2-2.1-1.5-4.4-2.8-5.1-2.8a7.818,7.818,0,0,1-3.6-1.9,88.56,88.56,0,0,0-8.4-5.1,106.3,106.3,0,0,1-11.2-7.1,48.727,48.727,0,0,0-5.8-3.9c-.8,0-16.2-11.4-25-18.5-3.8-3.1-9.8-7.8-13.1-10.4a167.453,167.453,0,0,1-13.5-12c-4.1-3.9-7.7-7.1-8.1-7.1-.8,0-13.9-13.5-15.1-15.6a92.4,92.4,0,0,0-7-7.8c-8.3-8.5-14.7-16.2-14.7-17.4,0-.6-1.1-1.9-2.5-3-2.7-2.2-8.2-9-13.8-17.2-2.1-3-7.3-10.7-11.7-17s-8-11.9-8-12.4a6.143,6.143,0,0,0-1.6-2.7c-3.2-3.5-20.3-37.6-29.8-59.4a66.541,66.541,0,0,1-4.3-12.5,11.752,11.752,0,0,0-1.7-3.9c-1.3-1.7-3.2-6.8-5.7-15.6a67,67,0,0,0-3.4-9.7,11.338,11.338,0,0,1-1.5-4.5,24.6,24.6,0,0,0-1.5-5.8,30.959,30.959,0,0,1-1.5-7.6c0-2-.7-4.2-1.5-4.9-1-.8-1.5-3-1.5-6.2,0-2.7-.5-5.9-1.2-7.1s-1.8-6-2.5-10.7c-.8-4.7-1.8-11-2.4-14-2-11.1-2.8-18.7-2.8-25.7-.1-3.9-.6-7.5-1.1-7.8-1.4-.8-1.4-68.2,0-69,.5-.3,1-3.6,1.1-7.3a127.7,127.7,0,0,1,.9-13.7c.6-3.9,1.4-10.2,1.9-14,.6-3.9,1.5-8.8,2-11a33.3,33.3,0,0,0,1.1-7.1,6.8,6.8,0,0,1,1.5-4.4c.9-.8,1.5-2.9,1.5-5.6a25.074,25.074,0,0,1,1.4-7.6,33.218,33.218,0,0,0,2.1-8c.3-2.6,1-5,1.6-5.3a4.045,4.045,0,0,0,.9-2.8c0-2.4,8.3-28.2,11-34.2,1-2.2,2.5-6,3.3-8.5a63.54,63.54,0,0,1,3.1-7.5,14.738,14.738,0,0,0,1.6-3.9c0-1.6,20.2-41.8,23.2-46.2a26.05,26.05,0,0,0,2.8-5,20.775,20.775,0,0,1,2.3-4.3c1.3-2,5.8-8.8,10-15.1,14.2-21.5,22-31.9,34-45.3,11.3-12.6,39.6-41.2,46-46.6,12.9-10.7,22.2-18.1,23.7-18.8a22.669,22.669,0,0,0,4-3,14.682,14.682,0,0,1,4.3-2.9c.9-.3,1.7-.9,1.7-1.3,0-.8,24.2-17.1,25.5-17.1.4,0,3.7-2,7.4-4.4a147.41,147.41,0,0,1,14.1-8c7.1-3.5,8.5-4.2,12.8-6.6,5-2.8,22.5-11,23.5-11a6.7,6.7,0,0,0,3.1-1.5,8.035,8.035,0,0,1,3.7-1.5,12.955,12.955,0,0,0,4.6-1.4,184.326,184.326,0,0,1,36.9-13.1,37.2,37.2,0,0,0,7.2-2.4,13.968,13.968,0,0,1,5.4-1.1,15.516,15.516,0,0,0,5.8-1.5,17.286,17.286,0,0,1,6.5-1.5c2.2,0,5-.6,6.1-1.4s4.6-1.7,7.9-2.1,6.5-1.1,7-1.5c.6-.5,3.5-1.1,6.5-1.4,15.6-1.6,24.9-2.9,28.5-3.9,5.9-1.8,92.9-1.7,94.7,0,.7.8,3.8,1.3,7.3,1.4a73.636,73.636,0,0,1,11,1c2.8.6,7.3,1.4,10,1.9,16.4,2.8,21.2,3.8,23.2,4.8a14.657,14.657,0,0,0,6.1,1.2c2.3,0,4.5.6,5.2,1.5s2.9,1.5,5.1,1.5a20.862,20.862,0,0,1,7.1,1.4c5.2,2.3,22.5,7.6,24.5,7.6a7.914,7.914,0,0,1,3.9,1.5,7.576,7.576,0,0,0,3.9,1.5,7.575,7.575,0,0,1,3.9,1.5,8.565,8.565,0,0,0,4.2,1.5,5.1,5.1,0,0,1,3.4,1.5,4.424,4.424,0,0,0,2.6,1.5c.8,0,4.3,1.3,7.7,3a65.675,65.675,0,0,0,7.1,3c.7,0,19.4,9.1,22.6,11a20.19,20.19,0,0,0,3,1.4,42.765,42.765,0,0,1,4.5,2.6,52.162,52.162,0,0,0,5.4,3,45.269,45.269,0,0,1,5,2.9,84.994,84.994,0,0,0,7.9,4.6c2.8,1.5,5.2,3.1,5.2,3.5s.8,1.1,1.8,1.4c4.3,1.6,31.1,20.4,42.9,30.1,1.8,1.5,3.7,2.5,4.2,2.3,1.3-.4,21.1-19.9,21.1-20.7,0-.4,5-5.7,11-11.8,6.1-6.2,11-11.6,10.9-12,0-.4-3.4-3.5-7.5-6.8s-9.4-7.7-11.8-9.8a33.381,33.381,0,0,0-4.9-3.7c-1.1,0-9.7-6.4-9.7-7.2a.915.915,0,0,0-1-.8c-.9,0-9.8-6.4-11-7.9a34.253,34.253,0,0,0-5-2.8c-2.5-1.3-9-5.2-14.5-8.7s-12.9-8-16.5-9.8c-3.6-1.9-10.4-5.5-15.2-8.1s-9.6-4.7-10.7-4.7a4.805,4.805,0,0,1-3.1-1.5,4.571,4.571,0,0,0-3-1.5,4.571,4.571,0,0,1-3-1.5,4.215,4.215,0,0,0-2.5-1.5,12.633,12.633,0,0,1-4.2-1.4c-8.7-4.4-16.1-7.6-17.2-7.6a10.87,10.87,0,0,1-3.9-1.4A69.728,69.728,0,0,0,726-1984c-1.9-.5-3.6-1.4-3.8-1.9-.2-.6-1.6-1.1-3-1.1a15.119,15.119,0,0,1-5.6-1.5,13.734,13.734,0,0,0-5.3-1.5,15.86,15.86,0,0,1-5.6-1.4c-4.5-1.9-10-3.4-25.9-7.1a42.542,42.542,0,0,1-6.9-2c-3.6-2.3-47.1-9-65.4-10.1-4.4-.3-8.4-1-8.9-1.5C594.4-2013.2,518.7-2013.4,517.6-2012.3Z" fill="#00112c"/>
  </g>
</svg>
